<svg xmlns="http://www.w3.org/2000/svg" width="469.928" height="389.544" viewBox="0 0 469.928 389.544">
  <g id="analyst" transform="translate(-14.989 -60.32)">
    <path id="background_analyst-22" d="M484.69,342.89c-1.27,13.9-7.57,28.07-14.15,43.15-12.07,27.68-32.36,53.36-62.63,61.62-43.35,11.82-165-28.73-234.37-8.33C34,480.33,8.45,370.22,16.25,340.47c5.43-20.73,12.14-41.53,12.31-63.18.25-30.62-12.4-59.78-8.82-90.37,3.48-29.76,11.2-60.03,29.07-84.61,16.92-23.27,45.32-33.67,72.85-38.45A246.237,246.237,0,0,1,269.83,84.64c23.1,11.18,44.81,26.4,59.82,47.22,15.39,21.33,22.93,47.23,35.31,70.44a187.92,187.92,0,0,0,54.8,63.1c16.71,12.2,35.61,21.77,49.76,36.86,12.82,13.71,16.4,27.05,15.17,40.63Z" fill="#0756fb" opacity="0.18" style="isolation: isolate"/>
    <g id="screen_analyst-22">
      <path id="Path_95" data-name="Path 95" d="M433.83,126.88V361.27a15.089,15.089,0,0,1-15.08,15.1H101.65a15.1,15.1,0,0,1-15.1-15.1V126.88a15.1,15.1,0,0,1,15.1-15.1H418.73a15.1,15.1,0,0,1,15.1,15.08Z" fill="#0756fb" opacity="0.18" style="isolation: isolate"/>
      <path id="Path_96" data-name="Path 96" d="M429,126.88V361.27a15.089,15.089,0,0,1-15.08,15.1H96.81a15.1,15.1,0,0,1-15.1-15.1V126.88a15.1,15.1,0,0,1,15.1-15.1H413.89A15.087,15.087,0,0,1,429,126.84v.03Z" fill="#fff"/>
      <path id="Path_97" data-name="Path 97" d="M429,126.88v.41H81.73v-.41a15.1,15.1,0,0,1,15.08-15.1H413.89A15.087,15.087,0,0,1,429,126.84v.03Z" fill="#0756fb"/>
      <path id="Path_98" data-name="Path 98" d="M128.58,127.29V376.37H96.81a15.1,15.1,0,0,1-15.1-15.1V127.29Z" fill="#fff"/>
      <rect id="Rectangle_7" data-name="Rectangle 7" width="24.46" height="2.42" transform="translate(96.89 191.06)" fill="#fff"/>
      <rect id="Rectangle_8" data-name="Rectangle 8" width="30.15" height="3.08" transform="translate(91.2 183.9)" fill="#fff"/>
      <rect id="Rectangle_9" data-name="Rectangle 9" width="24.46" height="2.42" transform="translate(96.89 219.68)" fill="#fff"/>
      <rect id="Rectangle_10" data-name="Rectangle 10" width="30.15" height="3.08" transform="translate(91.2 212.52)" fill="#fff"/>
      <rect id="Rectangle_11" data-name="Rectangle 11" width="24.46" height="2.42" transform="translate(96.89 248.31)" fill="#fff"/>
      <rect id="Rectangle_12" data-name="Rectangle 12" width="30.15" height="3.08" transform="translate(91.2 241.14)" fill="#fff"/>
      <rect id="Rectangle_13" data-name="Rectangle 13" width="24.46" height="2.42" transform="translate(96.89 276.93)" fill="#fff"/>
      <rect id="Rectangle_14" data-name="Rectangle 14" width="30.15" height="3.08" transform="translate(91.2 269.77)" fill="#fff"/>
    </g>
    <g id="data_graphic_analyst-22">
      <rect id="Rectangle_15" data-name="Rectangle 15" width="125.35" height="90.95" rx="5.88" transform="translate(252.67 150.82)" fill="#0756fb" opacity="0.18" style="isolation: isolate"/>
      <path id="Path_99" data-name="Path 99" d="M258.47,188.87l19.98-18.59,27.57,33.21,24.11-21.09,9.99,8.59,22.39-29.95,11.38,13.71v60.13H258.47Z" fill="#fff"/>
      <path id="Path_100" data-name="Path 100" d="M305.95,204.36,278.4,171.17l-19.51,18.15-.84-.89,20.46-19.04,27.58,33.23,24.04-21.03,9.9,8.51,22.46-30.05,11.87,14.31-.95.79-10.87-13.12-22.32,29.85-10.09-8.67Z" fill="#0756fb"/>
      <circle id="Ellipse_13" data-name="Ellipse 13" cx="2.49" cy="2.49" r="2.49" transform="translate(275.78 167.85)" fill="#0756fb"/>
      <circle id="Ellipse_14" data-name="Ellipse 14" cx="2.49" cy="2.49" r="2.49" transform="translate(255.98 185.77)" fill="#0756fb"/>
      <circle id="Ellipse_15" data-name="Ellipse 15" cx="2.49" cy="2.49" r="2.49" transform="translate(303.94 200.83)" fill="#0756fb"/>
      <circle id="Ellipse_16" data-name="Ellipse 16" cx="2.49" cy="2.49" r="2.49" transform="translate(327.64 179.91)" fill="#0756fb"/>
      <circle id="Ellipse_17" data-name="Ellipse 17" cx="2.49" cy="2.49" r="2.49" transform="translate(337.63 188.5)" fill="#0756fb"/>
      <circle id="Ellipse_18" data-name="Ellipse 18" cx="2.49" cy="2.49" r="2.49" transform="translate(360.02 158.55)" fill="#0756fb"/>
      <circle id="Ellipse_19" data-name="Ellipse 19" cx="2.49" cy="2.49" r="2.49" transform="translate(371.4 172.26)" fill="#0756fb"/>
    </g>
    <g id="stair_analyst-22">
      <rect id="Rectangle_16" data-name="Rectangle 16" width="45.48" height="147.79" transform="translate(153.39 267.39)" fill="#231f20"/>
      <rect id="Rectangle_17" data-name="Rectangle 17" width="45.48" height="118.55" transform="translate(198.87 296.63)" fill="#231f20"/>
      <rect id="Rectangle_18" data-name="Rectangle 18" width="45.48" height="89.31" transform="translate(244.35 325.87)" fill="#231f20"/>
      <rect id="Rectangle_19" data-name="Rectangle 19" width="45.48" height="60.08" transform="translate(289.82 355.11)" fill="#231f20"/>
      <rect id="Rectangle_20" data-name="Rectangle 20" width="45.48" height="30.84" transform="translate(335.3 384.35)" fill="#231f20"/>
    </g>
    <g id="character_analyst-22">
      <path id="Path_101" data-name="Path 101" d="M234.82,260.58a49.252,49.252,0,0,1-5.35,7.08,109.425,109.425,0,0,1-9.83,9.06c-1.71,1.47-3.42,2.94-5.05,4.49-1.35,1.28-3.09,2.17-3.42,4.16-.2,1.18,0,2.6-.88,3.39a2.171,2.171,0,0,1-2.38.16,4.951,4.951,0,0,1-1.78-1.77,3.092,3.092,0,0,1-.41-.86,2.479,2.479,0,0,1,.02-1.05c.37-1.65,1.65-2.88,2.75-4.16a28.672,28.672,0,0,0,2.69-3.61,19.707,19.707,0,0,1,2.33-2.75q3.255-3.675,6.53-7.35c2.34-2.64,4.74-5.38,5.81-8.75a14.037,14.037,0,0,1,1.39-3.78c1.68-2.44,5.58-2.81,8.14-1.65,3.08,1.42.7,5.38-.54,7.38Z" fill="#ffaa71"/>
      <path id="Path_102" data-name="Path 102" d="M221.3,255.76s-1.7,14.78,0,22.77a63.793,63.793,0,0,1,1.32,14.97c-.56.77,0,1.91.79,2.43a5.281,5.281,0,0,0,2.76.6l3.89.14a1.721,1.721,0,0,0,1.29-.33c.5-.56,0-1.48-.69-1.8a20.188,20.188,0,0,1-2.11-.74c-1.21-.73-1.37-2.4-1.4-3.82l-.1-6.2c-.14-8.9-.29-17.85,1.07-26.64a3,3,0,0,0,.02-1.23c-.19-.73-.91-1.18-1.56-1.56a6.426,6.426,0,0,0-2.34-.97,2.177,2.177,0,0,0-2.2.94" fill="#ffaa71"/>
      <path id="Path_103" data-name="Path 103" d="M242.1,200.96l2.18,1.2c1.05.58,2.26,1.65,3.33,1.23,1.89-.73,3.83-2.61,5.48-3.79q2.715-1.92,5.38-3.93a4.457,4.457,0,0,0,1.23-1.18c.54-.88.54-2.18,1.47-2.63l.52,2.28,2.88-1.45a2,2,0,0,1,1.19-.32c.77.13,1.1,1.07,1.03,1.85-.23,2.62-2.91,3.45-5.03,4.12a8.149,8.149,0,0,0-1.65.6,6.609,6.609,0,0,0-1.12.85,32.756,32.756,0,0,0-5.22,5.31,25.779,25.779,0,0,1-2.21,2.79,7.04,7.04,0,0,1-2.49,2.21,4.538,4.538,0,0,1-2.37.09c-2.84-.53-5.46-2.47-7.69-4.21-.24-.19-.51-.5-.35-.77a.761.761,0,0,1,.36-.25,5.5,5.5,0,0,0,2.23-1.54,3.154,3.154,0,0,0,.84-2.48Z" fill="#ffaa71"/>
      <path id="Path_104" data-name="Path 104" d="M236.85,186.56a2.769,2.769,0,0,1-2.06,1.41,1,1,0,0,0-.63.14.787.787,0,0,0-.15.66l.23,2.91a.825.825,0,0,1-.52,1.04.842.842,0,0,1-.27.04c-1.06.29-2.36.52-3.11-.29a3.086,3.086,0,0,1-.61-1.6,31.941,31.941,0,0,1-.6-10.07c.31-2.02,1.12-4.14,2.88-5.19,2.01-1.23,7.2-1.59,7,1.8a37.219,37.219,0,0,0-.43,4.1A8.276,8.276,0,0,1,236.85,186.56Z" fill="#ffaa71"/>
      <path id="Path_105" data-name="Path 105" d="M239.1,174.69a2.7,2.7,0,0,1-.04,1.84,2.338,2.338,0,0,1-1.54,1.03c-1.52.41-3.15.31-4.66.79a1.307,1.307,0,0,0-.63.37,1.38,1.38,0,0,0-.22.71,30.263,30.263,0,0,0,.28,8.86,14.188,14.188,0,0,1-8.41-.09,2.182,2.182,0,0,1-1.72-1.8,15.6,15.6,0,0,1,1.5-12.51,6.24,6.24,0,0,1,5.28-3.44c3.7-.49,9.22-.11,10.17,4.24Z" fill="#c14834"/>
      <path id="Path_106" data-name="Path 106" d="M235.76,222.62c-.21,7.22,2.41,13.99,4.38,20.96.86,3.03,1.83,6.13,1.5,9.25v.26c-9.52,2.74-19.97,4.12-29.18.45a78.986,78.986,0,0,0,1.55-14.79,25.55,25.55,0,0,1,.41-5.86c.74-3.29,2.88-6.08,5.08-8.62a9.094,9.094,0,0,0,2.06-3.1,8.552,8.552,0,0,0,.13-3.42,66.873,66.873,0,0,1-.26-11.23,27.4,27.4,0,0,1,2.56-9.77,13.082,13.082,0,0,1,2.54-3.78,6.578,6.578,0,0,1,4.04-1.97,4.363,4.363,0,0,1,3.96,1.84c2.32,3.58,6.17,4.38,8.99,7.59a1.1,1.1,0,0,1,.33.58,1.108,1.108,0,0,1-.25.67q-1.485,2.355-2.97,4.72a9.577,9.577,0,0,1-1.04,1.42h0c-.35.37-.77.66-1.13,1.02a7.484,7.484,0,0,0-1.62,3.96,62.377,62.377,0,0,0-1.08,9.83Z" fill="#0756fb"/>
      <path id="Path_107" data-name="Path 107" d="M232.81,294.86l-.96-.31a9.315,9.315,0,0,0-2.38-.53.725.725,0,0,0-.41.06.953.953,0,0,0-.36.41,1.885,1.885,0,0,1-.58.73,1.986,1.986,0,0,1-1.62,0,7.558,7.558,0,0,1-1.65-.59c-.51-.28-.94-.69-1.47-.94a1.073,1.073,0,0,0-.94-.07,1.306,1.306,0,0,0-.38.36,2.628,2.628,0,0,0-.47.79,2.174,2.174,0,0,0,0,.88,1.418,1.418,0,0,0,.22.74,1.615,1.615,0,0,0,1.23.45l4.7.29c1.47.09,2.95.19,4.42.16a9.782,9.782,0,0,0,2.41-.26.265.265,0,0,0,.23-.42,4.089,4.089,0,0,0-2.53-1.91" fill="#0756fb"/>
      <path id="Path_108" data-name="Path 108" d="M206.34,284.02c.13.47,0,.98.12,1.46a2.842,2.842,0,0,0,.6,1l1.14,1.41a1.426,1.426,0,0,0,2,.39.489.489,0,0,1,.41,0,.4.4,0,0,1,.14.27l.66,2.28a11.17,11.17,0,0,1,.44,2.91.966.966,0,0,1-.35.28c-1.05.53-2.83-1.83-3.7-2.59a8.131,8.131,0,0,1-1.89-2.93q-.375-.87-.72-1.74a5.342,5.342,0,0,1-.53-1.7.88.88,0,0,1,.48-.79c.26-.16,1.07-.75,1.2-.24Z" fill="#0756fb"/>
      <path id="Path_109" data-name="Path 109" d="M241.65,252.83a5.049,5.049,0,0,1-4.19-.41c-2.18-1.37-3.05-4.12-3.45-6.63-.86-5.57-.35-11.62-3.29-16.42-.9-1.47-2.14-2.95-1.96-4.66.19-1.79,1.86-3,2.82-4.53,1.06-1.65,1.23-3.7,1.43-5.66.34-3.68.66-7.36.99-11.03,0,.92,4.07,2.88,5.55,4.32-.35.37-.77.66-1.13,1.02a7.484,7.484,0,0,0-1.62,3.96,63.556,63.556,0,0,0-1.06,9.82c-.21,7.22,2.41,13.99,4.38,20.96.88,3.04,1.84,6.15,1.51,9.26Z" fill="rgba(0,0,0,0)"/>
    </g>
    <g id="icons_analyst-22">
      <rect id="Rectangle_21" data-name="Rectangle 21" width="36.46" height="36.46" transform="translate(159.59 154.6)" fill="#0756fb"/>
      <rect id="Rectangle_22" data-name="Rectangle 22" width="36.46" height="36.46" transform="translate(159.59 210.07)" fill="#0756fb"/>
      <rect id="Rectangle_23" data-name="Rectangle 23" width="5.51" height="26.48" transform="translate(164.59 160.05)" fill="#fff"/>
      <rect id="Rectangle_24" data-name="Rectangle 24" width="5.51" height="17.95" transform="translate(173.03 168.59)" fill="#fff"/>
      <rect id="Rectangle_25" data-name="Rectangle 25" width="5.51" height="11.78" transform="translate(181.64 174.75)" fill="#fff"/>
      <path id="Path_110" data-name="Path 110" d="M176.82,242.39a12.84,12.84,0,1,1,12.84-12.84A12.855,12.855,0,0,1,176.82,242.39Zm0-24.47a11.62,11.62,0,1,0,11.62,11.62A11.63,11.63,0,0,0,176.82,217.92Z" fill="#fff"/>
      <rect id="Rectangle_26" data-name="Rectangle 26" width="1.22" height="3.33" transform="translate(176.21 217.31)" fill="#fff"/>
      <rect id="Rectangle_27" data-name="Rectangle 27" width="1.22" height="3.33" transform="translate(176.21 238.44)" fill="#fff"/>
      <rect id="Rectangle_28" data-name="Rectangle 28" width="3.33" height="1.22" transform="translate(185.72 228.93)" fill="#fff"/>
      <rect id="Rectangle_29" data-name="Rectangle 29" width="3.33" height="1.22" transform="translate(164.59 228.93)" fill="#fff"/>
      <path id="Path_111" data-name="Path 111" d="M183.46,233.95l-7.25-3.26v-6.94h1.22v6.15l6.53,2.94Z" fill="#fff"/>
    </g>
  </g>
</svg>
