<svg xmlns="http://www.w3.org/2000/svg" width="385.9" height="247" viewBox="0 0 385.9 247">
  <g id="chart" transform="translate(-57 -127.4)">
    <g id="board_chart-7-25">
      <path id="Path_66" data-name="Path 66" d="M419.5,172.1V350.7a22.065,22.065,0,0,1-22,22H114.3a22,22,0,0,1-22-22V172.1a21.937,21.937,0,0,1,22-22H397.5A22.065,22.065,0,0,1,419.5,172.1Z" fill="#fff"/>
      <path id="Path_67" data-name="Path 67" d="M397.5,374.4H114.3a23.793,23.793,0,0,1-23.8-23.8V172.1a23.922,23.922,0,0,1,23.8-23.8H397.5a23.793,23.793,0,0,1,23.8,23.8V350.7A23.772,23.772,0,0,1,397.5,374.4ZM114.3,152a20.187,20.187,0,0,0-20.2,20.1V350.6a20.123,20.123,0,0,0,20.2,20.1H397.5a20.251,20.251,0,0,0,20.2-20.1V172.1A20.123,20.123,0,0,0,397.5,152Z" fill="#093f68"/>
      <rect id="Rectangle_2" data-name="Rectangle 2" width="32.3" height="55" transform="translate(121.8 286.5)" fill="#0756fb"/>
      <path id="Path_68" data-name="Path 68" d="M154.1,343.3H121.8a1.793,1.793,0,0,1-1.8-1.8v-55a1.793,1.793,0,0,1,1.8-1.8h32.3a1.793,1.793,0,0,1,1.8,1.8v55a1.793,1.793,0,0,1-1.8,1.8Zm-30.5-3.6h28.6V288.3H123.5Z" fill="#093f68"/>
      <rect id="Rectangle_3" data-name="Rectangle 3" width="32.3" height="76.2" transform="translate(180.8 265.2)" fill="#0756fb"/>
      <path id="Path_69" data-name="Path 69" d="M213.1,343.3H180.9a1.793,1.793,0,0,1-1.8-1.8V265.3a1.793,1.793,0,0,1,1.8-1.8h32.2a1.793,1.793,0,0,1,1.8,1.8v76.2A1.793,1.793,0,0,1,213.1,343.3Zm-30.5-3.6h28.6V267.1H182.6Z" fill="#093f68"/>
      <rect id="Rectangle_4" data-name="Rectangle 4" width="32.3" height="115.1" transform="translate(239.8 226.4)" fill="#0756fb"/>
      <path id="Path_70" data-name="Path 70" d="M272,343.3H239.8a1.793,1.793,0,0,1-1.8-1.8V226.4a1.793,1.793,0,0,1,1.8-1.8H272a1.793,1.793,0,0,1,1.8,1.8V341.5A1.792,1.792,0,0,1,272,343.3Zm-30.4-3.6h28.7V228.2H241.7Z" fill="#093f68"/>
      <rect id="Rectangle_5" data-name="Rectangle 5" width="32.3" height="52.6" transform="translate(298.8 288.8)" fill="#0756fb"/>
      <path id="Path_71" data-name="Path 71" d="M331,343.3H298.8a1.792,1.792,0,0,1-1.8-1.8V288.8a1.792,1.792,0,0,1,1.8-1.8H331a1.792,1.792,0,0,1,1.8,1.8h0v52.6a1.817,1.817,0,0,1-1.8,1.9Zm-30.5-3.6h28.6V290.6H300.5Z" fill="#093f68"/>
      <rect id="Rectangle_6" data-name="Rectangle 6" width="32.3" height="115.1" transform="translate(357.8 226.4)" fill="#0756fb"/>
      <path id="Path_72" data-name="Path 72" d="M390,343.3H357.8a1.792,1.792,0,0,1-1.8-1.8V226.4a1.793,1.793,0,0,1,1.8-1.8H390a1.793,1.793,0,0,1,1.8,1.8V341.5A1.792,1.792,0,0,1,390,343.3Zm-30.5-3.6h28.7V228.2H359.5Z" fill="#093f68"/>
      <path id="Path_73" data-name="Path 73" d="M314.9,306.7a1.612,1.612,0,0,1-1.3-.6l-58-61.1-57.7,37.2a.367.367,0,0,1-.3.1l-59,23.6a1.733,1.733,0,0,1-2.3-1,1.816,1.816,0,0,1,1-2.3h0l58.8-23.5,58.8-37.9a1.716,1.716,0,0,1,2.3.3l57.7,60.8,57.7-60.8a1.85,1.85,0,0,1,2.5-.1,1.976,1.976,0,0,1,.1,2.6h0l-59,62.1A1.761,1.761,0,0,1,314.9,306.7Z" fill="#093f68"/>
      <circle id="Ellipse_8" data-name="Ellipse 8" cx="8.9" cy="8.9" r="8.9" transform="translate(129 295.5)" fill="#f36132"/>
      <path id="Path_74" data-name="Path 74" d="M138,315.1a10.7,10.7,0,1,1,10.7-10.7A10.712,10.712,0,0,1,138,315.1Zm0-17.9a7.1,7.1,0,1,0,7.1,7.1h0A7.127,7.127,0,0,0,138,297.2Z" fill="#093f68"/>
      <circle id="Ellipse_9" data-name="Ellipse 9" cx="8.9" cy="8.9" r="8.9" transform="translate(188 271.9)" fill="#f36132"/>
      <path id="Path_75" data-name="Path 75" d="M196.9,291.5a10.7,10.7,0,1,1,10.7-10.7h0A10.586,10.586,0,0,1,196.9,291.5Zm0-17.9a7.1,7.1,0,1,0,7.1,7.1h0A7.063,7.063,0,0,0,196.9,273.6Z" fill="#093f68"/>
      <circle id="Ellipse_10" data-name="Ellipse 10" cx="8.9" cy="8.9" r="8.9" transform="translate(245.715 250.162) rotate(-80.782)" fill="#f36132"/>
      <path id="Path_76" data-name="Path 76" d="M255.9,253.5a10.7,10.7,0,1,1,10.7-10.7A10.712,10.712,0,0,1,255.9,253.5Zm0-17.8a7.1,7.1,0,1,0,7.1,7.1h0A7.127,7.127,0,0,0,255.9,235.7Z" fill="#093f68"/>
      <circle id="Ellipse_11" data-name="Ellipse 11" cx="8.9" cy="8.9" r="8.9" transform="translate(306 296)" fill="#f36132"/>
      <path id="Path_77" data-name="Path 77" d="M314.9,315.7A10.7,10.7,0,1,1,325.6,305h0A10.777,10.777,0,0,1,314.9,315.7Zm0-17.9a7.1,7.1,0,1,0,7.1,7.1h0A7.127,7.127,0,0,0,314.9,297.8Z" fill="#093f68"/>
      <circle id="Ellipse_12" data-name="Ellipse 12" cx="8.9" cy="8.9" r="8.9" transform="translate(365 233.9)" fill="#f36132"/>
      <path id="Path_78" data-name="Path 78" d="M373.9,253.5a10.7,10.7,0,1,1,10.7-10.7h0A10.712,10.712,0,0,1,373.9,253.5Zm0-17.8a7.1,7.1,0,1,0,7.1,7.1h0A7.127,7.127,0,0,0,373.9,235.7Z" fill="#093f68"/>
      <path id="Path_79" data-name="Path 79" d="M419.5,172.1v6.2H92.4v-6.2a21.937,21.937,0,0,1,22-22H397.5A22.065,22.065,0,0,1,419.5,172.1Z" fill="#0756fb"/>
      <path id="Path_80" data-name="Path 80" d="M419.5,180.1H92.4a1.793,1.793,0,0,1-1.8-1.8h0v-6.2a23.922,23.922,0,0,1,23.8-23.8H397.6a23.793,23.793,0,0,1,23.8,23.8v6.2A1.95,1.95,0,0,1,419.5,180.1ZM94.2,176.5H417.7v-4.4A20.123,20.123,0,0,0,397.5,152H114.3a20.187,20.187,0,0,0-20.2,20.1v4.4Z" fill="#093f68"/>
      <path id="Path_81" data-name="Path 81" d="M394.1,206.5H347.9a1.8,1.8,0,1,1-.2-3.6h46.5a1.863,1.863,0,0,1,1.7,1.9A2.123,2.123,0,0,1,394.1,206.5Z" fill="#dfeaef"/>
      <path id="Path_82" data-name="Path 82" d="M183.8,211.2H130.4a1.736,1.736,0,0,1-1.9-1.7,1.8,1.8,0,0,1,1.7-1.9h53.6a1.736,1.736,0,0,1,1.9,1.7,1.8,1.8,0,0,1-1.7,1.9Z" fill="#ffbc0e"/>
      <path id="Path_83" data-name="Path 83" d="M205,231.5H130.5a1.736,1.736,0,0,1-1.9-1.7,1.8,1.8,0,0,1,1.7-1.9H205a1.736,1.736,0,0,1,1.9,1.7,1.8,1.8,0,0,1-1.7,1.9Z" fill="#ffbc0e"/>
      <path id="Path_84" data-name="Path 84" d="M215.7,211.2H194.8a1.863,1.863,0,0,1-1.7-1.9,1.915,1.915,0,0,1,1.7-1.7h20.9a1.863,1.863,0,0,1,1.7,1.9,1.828,1.828,0,0,1-1.7,1.7Z" fill="#f36132"/>
    </g>
    <g id="graph_chart-7-25">
      <path id="Path_85" data-name="Path 85" d="M339.2,129.2h94.7a7.341,7.341,0,0,1,7.3,7.3v65.7a7.341,7.341,0,0,1-7.3,7.3H339.2a7.341,7.341,0,0,1-7.3-7.3V136.5A7.277,7.277,0,0,1,339.2,129.2Z" fill="#fff"/>
      <path id="Path_86" data-name="Path 86" d="M432.3,211.2H340.7a10.605,10.605,0,0,1-10.6-10.6V138a10.605,10.605,0,0,1,10.6-10.6h91.6A10.605,10.605,0,0,1,442.9,138v62.6A10.67,10.67,0,0,1,432.3,211.2ZM340.7,131a6.957,6.957,0,0,0-7,7v62.6a6.957,6.957,0,0,0,7,7h91.6a6.957,6.957,0,0,0,7-7V138a6.957,6.957,0,0,0-7-7Z" fill="#093f68"/>
      <path id="Path_87" data-name="Path 87" d="M422,195H351.6a1.793,1.793,0,0,1-1.8-1.8V141.8a1.863,1.863,0,0,1,1.9-1.7,1.915,1.915,0,0,1,1.7,1.7v49.6H422a1.863,1.863,0,0,1,1.7,1.9A1.915,1.915,0,0,1,422,195Z" fill="#0756fb"/>
      <path id="Path_88" data-name="Path 88" d="M359.8,185.1a2.92,2.92,0,0,1-.9-.2,1.726,1.726,0,0,1-.7-2.4h0c1.2-2.2,12-21.8,22.2-20.8,5.2.5,7.5,3.1,9.5,5.5s3.7,4.2,8.3,4.4,12.2-5.3,21.1-15.2a1.84,1.84,0,0,1,2.7,2.5h0c-6.9,7.6-16.7,16.6-24,16.4-6.1-.3-8.6-3.1-10.9-5.7-1.9-2.2-3.4-3.9-7.2-4.2-5.9-.5-14.6,11.3-18.7,18.9A1.684,1.684,0,0,1,359.8,185.1Z" fill="#0756fb"/>
    </g>
    <g id="chart_chart-7-25">
      <path id="Path_89" data-name="Path 89" d="M62.2,190.2h77.1a3.372,3.372,0,0,1,3.4,3.4v72.1a3.372,3.372,0,0,1-3.4,3.4H62.2a3.372,3.372,0,0,1-3.4-3.4V193.6A3.372,3.372,0,0,1,62.2,190.2Z" fill="#fff"/>
      <path id="Path_90" data-name="Path 90" d="M136.6,270.9H64.9A7.917,7.917,0,0,1,57,263V196.3a7.917,7.917,0,0,1,7.9-7.9h71.7a7.917,7.917,0,0,1,7.9,7.9V263A7.853,7.853,0,0,1,136.6,270.9ZM64.9,192a4.268,4.268,0,0,0-4.3,4.3V263a4.268,4.268,0,0,0,4.3,4.3h71.7a4.268,4.268,0,0,0,4.3-4.3V196.3a4.268,4.268,0,0,0-4.3-4.3Z" fill="#093f68"/>
      <path id="Path_91" data-name="Path 91" d="M127.9,229.6a27.15,27.15,0,1,1-27.2-27.2h0A27.358,27.358,0,0,1,127.9,229.6Z" fill="#70cc40"/>
      <path id="Path_92" data-name="Path 92" d="M100.8,258.6a28.9,28.9,0,1,1,28.9-28.9,29.016,29.016,0,0,1-28.9,28.9Zm0-54.3a25.35,25.35,0,1,0,25.3,25.4v-.1A25.394,25.394,0,0,0,100.8,204.3Z" fill="#093f68"/>
      <path id="Path_93" data-name="Path 93" d="M127.9,229.6a26.348,26.348,0,0,1-3.3,12.9l-23.9-12.9V202.5A27.143,27.143,0,0,1,127.9,229.6Z" fill="#fff"/>
      <path id="Path_94" data-name="Path 94" d="M124.6,244.4a2.92,2.92,0,0,1-.9-.2L99.8,231.3a1.781,1.781,0,0,1-1-1.6V202.5a1.793,1.793,0,0,1,1.8-1.8,28.894,28.894,0,0,1,28.9,29.1,28.484,28.484,0,0,1-3.5,13.7,2.012,2.012,0,0,1-1.1.9Zm-22-15.8,21.3,11.6a25.444,25.444,0,0,0-21.3-35.8Z" fill="#093f68"/>
    </g>
  </g>
</svg>
