<svg xmlns="http://www.w3.org/2000/svg" width="425.4" height="314.2" viewBox="0 0 425.4 314.2">
  <g id="completed-task" transform="translate(-37.3 -92.9)">
    <path id="Floor_completed-task-31" d="M458,363.6H38a.7.7,0,0,1,0-1.4H458a.7.7,0,1,1,0,1.4Z" fill="#d1d3d4"/>
    <g id="Task_List_completed-task-31">
      <path id="Path_1" data-name="Path 1" d="M423.9,390.6H169.2l38.1-297H462Z" fill="#fff"/>
      <path id="Path_2" data-name="Path 2" d="M423.9,391.3H169.2a.684.684,0,0,1-.7-.7v-.1l38.1-297c0-.4.3-.6.7-.6H462a.764.764,0,0,1,.5.2,1.421,1.421,0,0,1,.2.6l-38.1,297A.563.563,0,0,1,423.9,391.3ZM170,389.9H423.3L461.2,94.3H207.9Z" fill="#231f20"/>
      <path id="Path_3" data-name="Path 3" d="M425,129.8H263.6a5.464,5.464,0,0,1-5.6-5.3,3.4,3.4,0,0,1,.1-1l.4-3.3a7.3,7.3,0,0,1,7.1-6.3H427a5.464,5.464,0,0,1,5.6,5.3,3.4,3.4,0,0,1-.1,1l-.4,3.3A7.391,7.391,0,0,1,425,129.8Z" fill="#d1d3d4"/>
      <path id="Path_4" data-name="Path 4" d="M240.9,116.5H226.5a.7.7,0,1,1,0-1.4h14.4a.7.7,0,0,1,0,1.4Z" fill="#231f20"/>
      <path id="Path_5" data-name="Path 5" d="M240.1,122.8H225.7a.7.7,0,1,1,0-1.4h14.4a.7.7,0,1,1,0,1.4Z" fill="#231f20"/>
      <path id="Path_6" data-name="Path 6" d="M239.3,129.1H224.9a.7.7,0,1,1,0-1.4h14.4a.7.7,0,1,1,0,1.4Z" fill="#231f20"/>
      <path id="Path_7" data-name="Path 7" d="M414.7,207.6H228.3A14.1,14.1,0,0,1,214,191.2l3.1-23.9a19.167,19.167,0,0,1,18.5-16.4H422a14.1,14.1,0,0,1,14.3,16.4l-3.1,23.9A19.269,19.269,0,0,1,414.7,207.6Z" fill="#fff"/>
      <path id="Path_8" data-name="Path 8" d="M414.7,208.2H228.3a14.8,14.8,0,0,1-11.5-5,15.073,15.073,0,0,1-3.5-12.2l3.1-24a19.913,19.913,0,0,1,19.2-17H422a14.8,14.8,0,0,1,11.5,5,15.073,15.073,0,0,1,3.5,12.2l-3.1,23.9C432.7,200.6,424.1,208.2,414.7,208.2ZM235.6,151.5a18.431,18.431,0,0,0-17.8,15.8l-3.1,23.9a14.005,14.005,0,0,0,3.2,11.1,13.364,13.364,0,0,0,10.4,4.5H414.7A18.512,18.512,0,0,0,432.5,191l3.1-24A13.407,13.407,0,0,0,422,151.4H235.6Z" fill="#231f20"/>
      <ellipse id="Ellipse_1" data-name="Ellipse 1" cx="21" cy="18.5" rx="21" ry="18.5" transform="matrix(0.729, -0.684, 0.684, 0.729, 224.499, 179.99)"/>
      <path id="Path_9" data-name="Path 9" d="M266,172.9a2.652,2.652,0,0,1-.5.6l-16.7,14.8c-.6.5-1,.5-1.4,0l-7.2-8.6c-.4-.5-.3-.9.2-1.3l2.3-1.9q.75-.6,1.2,0c1.4,1.7,2.9,3.4,4.3,5,.4.5.8.5,1.4,0l13-11.5c.6-.5,1-.5,1.4,0,.6.6,1.1,1.3,1.7,2l.3.6Z" fill="#fff"/>
      <path id="Path_10" data-name="Path 10" d="M410.6,170.6H290.8a2.1,2.1,0,1,1,0-4.2H410.6a2.051,2.051,0,0,1,2.1,2.1,2.182,2.182,0,0,1-2.1,2.1Z" fill="#d1d3d4"/>
      <path id="Path_11" data-name="Path 11" d="M383.5,190.8H288.1a2.1,2.1,0,1,1,0-4.2h95.4a2.051,2.051,0,0,1,2.1,2.1A2.112,2.112,0,0,1,383.5,190.8Z" fill="#d1d3d4"/>
      <path id="Path_12" data-name="Path 12" d="M406.3,273.2H219.9c-9.1,0-15.5-7.3-14.3-16.4l3.1-24a19.258,19.258,0,0,1,18.5-16.4H413.6c9.1,0,15.5,7.3,14.3,16.4l-3.1,24A19.167,19.167,0,0,1,406.3,273.2Z" fill="#fff"/>
      <path id="Path_13" data-name="Path 13" d="M406.3,273.9H219.9a14.8,14.8,0,0,1-11.5-5,15.073,15.073,0,0,1-3.5-12.2l3.1-24a19.913,19.913,0,0,1,19.2-17H413.6a14.8,14.8,0,0,1,11.5,5,15.073,15.073,0,0,1,3.5,12.2l-3.1,23.9C424.3,266.3,415.6,273.9,406.3,273.9ZM227.2,217.2A18.431,18.431,0,0,0,209.4,233l-3.1,24a13.679,13.679,0,0,0,3.2,11,13.858,13.858,0,0,0,10.4,4.5H406.3a18.512,18.512,0,0,0,17.8-15.8l3.1-24a14.005,14.005,0,0,0-3.2-11.1,13.364,13.364,0,0,0-10.4-4.5Z" fill="#231f20"/>
      <path id="Path_14" data-name="Path 14" d="M241.6,265.2a17.735,17.735,0,0,1-17.9-20.6c1.4-11.2,11.7-20.3,22.9-20.3a17.713,17.713,0,0,1,17.9,20.5h0C263.1,256.1,252.8,265.2,241.6,265.2Zm5-39.4c-10.5,0-20.2,8.6-21.5,19.1a16.468,16.468,0,0,0,16.6,18.9c10.5,0,20.2-8.6,21.5-19.1h0a16.782,16.782,0,0,0-3.9-13.4,16.594,16.594,0,0,0-12.7-5.5Z" fill="#d1d3d4"/>
      <path id="Path_15" data-name="Path 15" d="M257.6,238.6a2.652,2.652,0,0,1-.5.6L240.4,254c-.6.5-1,.5-1.4,0l-7.2-8.6c-.4-.5-.3-.9.2-1.3l2.3-1.9q.75-.6,1.2,0l4.3,5c.4.5.8.5,1.4,0l13-11.5c.6-.5.9-.5,1.4,0,.6.7,1.1,1.3,1.7,2l.3.6Z" fill="#fff"/>
      <path id="Path_16" data-name="Path 16" d="M402.2,236.2H282.3a2.1,2.1,0,0,1,0-4.2H402.1a2.051,2.051,0,0,1,2.1,2.1A1.97,1.97,0,0,1,402.2,236.2Z" fill="#d1d3d4"/>
      <path id="Path_17" data-name="Path 17" d="M375.1,256.4H279.7a2.1,2.1,0,0,1,0-4.2h95.4a2.1,2.1,0,1,1,0,4.2Z" fill="#d1d3d4"/>
      <path id="Path_18" data-name="Path 18" d="M397.8,338.9H211.5a14.1,14.1,0,0,1-14.3-16.4l3.1-24a19.258,19.258,0,0,1,18.5-16.4H405.2a14.1,14.1,0,0,1,14.3,16.4l-3.1,24A19.28,19.28,0,0,1,397.8,338.9Z" fill="#fff"/>
      <path id="Path_19" data-name="Path 19" d="M397.8,339.6H211.5a14.8,14.8,0,0,1-11.5-5,15.073,15.073,0,0,1-3.5-12.2l3.1-24a19.913,19.913,0,0,1,19.2-17H405.2a14.8,14.8,0,0,1,11.5,5,15.073,15.073,0,0,1,3.5,12.2l-3.1,24A20.016,20.016,0,0,1,397.8,339.6Zm-179-56.8A18.512,18.512,0,0,0,201,298.6l-3.1,24a14.005,14.005,0,0,0,3.2,11.1,13.858,13.858,0,0,0,10.4,4.5H397.9a18.512,18.512,0,0,0,17.8-15.8l3.1-24a14.005,14.005,0,0,0-3.2-11.1,13.858,13.858,0,0,0-10.4-4.5Z" fill="#231f20"/>
      <path id="Path_20" data-name="Path 20" d="M233.2,330.9a18.231,18.231,0,0,1-13.7-5.9,17.853,17.853,0,0,1-4.2-14.5c1.4-11.2,11.7-20.3,22.9-20.3a17.972,17.972,0,0,1,13.7,6,18.21,18.21,0,0,1,4.2,14.5h0C254.6,321.8,244.4,330.9,233.2,330.9Zm5-39.4c-10.5,0-20.2,8.6-21.5,19.1a17.109,17.109,0,0,0,3.9,13.5,16.385,16.385,0,0,0,12.6,5.5c10.5,0,20.2-8.6,21.5-19.1h0a16.782,16.782,0,0,0-3.9-13.4A16.146,16.146,0,0,0,238.2,291.5Z" fill="#d1d3d4"/>
      <path id="Path_21" data-name="Path 21" d="M249.1,304.2a2.652,2.652,0,0,1-.5.6l-16.7,14.8c-.6.5-1,.5-1.4,0l-7.2-8.6c-.4-.5-.3-.9.2-1.3l2.3-1.9q.75-.6,1.2,0l4.3,5c.4.5.8.5,1.4,0l13-11.5c.6-.5,1-.5,1.4,0,.6.6,1.1,1.3,1.7,2a2.186,2.186,0,0,0,.3.5Z" fill="#fff"/>
      <path id="Path_22" data-name="Path 22" d="M393.8,301.9H273.9a2.1,2.1,0,1,1,0-4.2H393.7a2.051,2.051,0,0,1,2.1,2.1A2.03,2.03,0,0,1,393.8,301.9Z" fill="#d1d3d4"/>
      <path id="Path_23" data-name="Path 23" d="M366.7,322.1H271.3a2.1,2.1,0,0,1,0-4.2h95.4a2.1,2.1,0,1,1,0,4.2Z" fill="#d1d3d4"/>
      <path id="Path_24" data-name="Path 24" d="M386.8,375.8a.6.6,0,0,1-.4-.1l-10.9-7.6a.75.75,0,0,1,0-1.2l12.9-7.6a.775.775,0,0,1,1,.2h0a.8.8,0,0,1-.2,1h-.1l-11.9,7,10,7a.776.776,0,0,1,.2,1h0A.713.713,0,0,1,386.8,375.8Z" fill="#d1d3d4"/>
      <path id="Path_25" data-name="Path 25" d="M396.2,375.8a.684.684,0,0,1-.7-.7.713.713,0,0,1,.3-.6l11.9-7-10-7a.651.651,0,0,1-.2-.9v-.1a.752.752,0,0,1,1-.2h0l10.9,7.6a.713.713,0,0,1,.3.6.622.622,0,0,1-.4.6l-12.9,7.6C396.5,375.7,396.4,375.8,396.2,375.8Z" fill="#d1d3d4"/>
    </g>
    <g id="Character_completed-task-31">
      <path id="Path_26" data-name="Path 26" d="M123.7,251.1s11.8,20.8,23.3,22.7c14.1,2.3,34.8-10.1,34.8-10.1l-11.7-11.4-23.9-.1-13-26.6Z"/>
      <path id="Path_27" data-name="Path 27" d="M143.1,386.8l.8,9,12.5-1L155.2,384Z" fill="#fff"/>
      <path id="Path_28" data-name="Path 28" d="M143.9,396.5a.669.669,0,0,1-.7-.6l-.9-9a.792.792,0,0,1,.5-.8l12.2-2.8a1.268,1.268,0,0,1,.6.1.55.55,0,0,1,.3.5l1.2,10.8c0,.2,0,.4-.2.5a.764.764,0,0,1-.5.2l-12.5,1.1Zm-.1-9.2.8,7.7,11.1-.9-1-9.3Z" fill="#231f20"/>
      <path id="Path_29" data-name="Path 29" d="M55.5,366.9l-8.1,6.4,4.6,8.6,8-3.5Z" fill="#fff"/>
      <path id="Path_30" data-name="Path 30" d="M52,382.6a.548.548,0,0,1-.6-.4l-4.5-8.6a.651.651,0,0,1,.2-.9l8-6.4a.661.661,0,0,1,.6-.1,1,1,0,0,1,.5.4l4.5,11.5a.7.7,0,0,1-.4.9l-8,3.5A.367.367,0,0,1,52,382.6Zm-3.7-9.1,4,7.5,6.8-3-3.9-9.9Z" fill="#231f20"/>
      <path id="Path_31" data-name="Path 31" d="M79.6,285.4l.8,57.3L52.5,366.9l5.8,14.3s40.8-19.6,47.1-28.4,7.3-30.2,7.3-30.2l20.9,21,8,45.5,15.9-.9s-2-33.4-2-45.8-31.6-55-31.6-55Z" fill="#231f20"/>
      <path id="Path_32" data-name="Path 32" d="M141.5,389.7a.73.73,0,0,1-.7-.6l-8-45.3-19.6-19.7c-.3,5.1-1.9,21.4-7.3,29-6.4,8.8-45.6,27.8-47.3,28.6a.446.446,0,0,1-.5,0,.781.781,0,0,1-.4-.4L51.9,367a.778.778,0,0,1,.2-.8l27.7-24-.8-57a.684.684,0,0,1,.7-.7l44.2,2a.55.55,0,0,1,.5.3c1.3,1.8,31.7,42.9,31.7,55.4,0,12.2,2,45.4,2,45.7a.669.669,0,0,1-.6.7h0l-16,1.1Zm-28.9-67.8a.764.764,0,0,1,.5.2L134,343a.52.52,0,0,1,.2.4l7.9,44.9,14.6-.8c-.3-4.9-2-33.8-2-45.1,0-11.5-28.6-50.7-31.2-54.3l-43.2-1.9.8,56.5a.764.764,0,0,1-.2.5L53.3,367.1l5.3,13.1c5.3-2.6,40.4-19.9,46.1-27.9,6.2-8.6,7.2-29.6,7.2-29.8a.675.675,0,0,1,.4-.6Z" fill="#231f20"/>
      <path id="Path_33" data-name="Path 33" d="M76.7,291l1.1-28s-.5-34.7,12.3-40.9,38.2-3.5,43.2,3.5-6.8,65.4-6.8,65.4Z"/>
      <path id="Path_34" data-name="Path 34" d="M130.3,195.9a11.52,11.52,0,0,0-3.5-7.8c-4.5-4.1-14.6-5.7-18.3.4a5.922,5.922,0,0,0-3.3,1.3,8.941,8.941,0,0,0-2.4,4.1c-2.1,5.9-.4,12.2,1.9,18a14.64,14.64,0,0,0,3.2,5.2c3.5,3.3,8.4,1.5,12.3-.2a17.511,17.511,0,0,0,6.9-4.9c2.2-2.7,3.3-7.7,3.3-11.1A42.14,42.14,0,0,0,130.3,195.9Z" fill="#fff"/>
      <path id="Path_35" data-name="Path 35" d="M112.8,219.6a7.009,7.009,0,0,1-5.3-2.1,14.178,14.178,0,0,1-3.4-5.5c-2.1-5.2-4.2-12-1.9-18.5a10.319,10.319,0,0,1,2.6-4.4,6.659,6.659,0,0,1,3.3-1.5,9.537,9.537,0,0,1,6.7-3.9,16.648,16.648,0,0,1,12.5,3.7c2.2,1.9,3.4,4.6,3.8,8.2h0a43.488,43.488,0,0,1,.2,5.1c0,3.6-1.2,8.8-3.5,11.5a18.984,18.984,0,0,1-7.1,5.1A18.658,18.658,0,0,1,112.8,219.6Zm3.8-34.4a9.7,9.7,0,0,0-1.7.1,7.832,7.832,0,0,0-5.9,3.5.6.6,0,0,1-.6.3,5.025,5.025,0,0,0-2.8,1.2,8.489,8.489,0,0,0-2.2,3.8c-2.1,6-.1,12.5,1.9,17.5a13.6,13.6,0,0,0,3.1,5c3.1,2.9,7.4,1.5,11.6-.3a17.05,17.05,0,0,0,6.6-4.7c2-2.5,3.1-7.3,3.2-10.6a41.8,41.8,0,0,0-.2-5h0c-.4-3.3-1.4-5.6-3.3-7.4A15.693,15.693,0,0,0,116.6,185.2Z" fill="#231f20"/>
      <path id="Path_36" data-name="Path 36" d="M120.9,218.3l-.9,8.5s-2,4.5-7.2,2.2a8.784,8.784,0,0,1-5.3-7.6l1.7-15.2s4.4-1.5,4.8-10.5c0,0,5.3,0,13.6.4,0,0,1.1,14-.2,18.1S120.9,218.3,120.9,218.3Z" fill="#fff"/>
      <path id="Path_37" data-name="Path 37" d="M115.6,230.4a7.751,7.751,0,0,1-3-.7,9.559,9.559,0,0,1-5.8-8.2l1.7-15.3a.634.634,0,0,1,.5-.6s4-1.5,4.3-9.8a.684.684,0,0,1,.7-.7h0s5.4,0,13.6.4a.749.749,0,0,1,.7.6c.1.6,1.1,14.2-.3,18.4-1.1,3.3-4.3,4.3-6.3,4.5l-.8,7.9v.2A6.332,6.332,0,0,1,115.6,230.4Zm-5.8-23.7-1.6,14.8a8.143,8.143,0,0,0,4.9,6.9c4.2,1.8,6-1.2,6.3-1.8l.9-8.4c0-.4.3-.6.7-.6.2,0,4.4,0,5.6-3.6s.4-14.5.2-17.2c-6.2-.3-10.6-.3-12.2-.4-.5,7.4-3.6,9.7-4.8,10.3Zm10.3,20.1Z" fill="#231f20"/>
      <path id="Path_38" data-name="Path 38" d="M112.4,206.5a3.981,3.981,0,0,0-.9-2.1,5.936,5.936,0,0,0-1.8-1.3,2.1,2.1,0,0,0-1.1-.4,1.949,1.949,0,0,0-.8.1,3.553,3.553,0,0,0-1.6,1.1,2.877,2.877,0,0,0-.3,1.6,9.15,9.15,0,0,0,.1,1.7,4.447,4.447,0,0,0,5.3,3.3h.1" fill="#fff"/>
      <path id="Path_39" data-name="Path 39" d="M110.4,211.4a6.766,6.766,0,0,1-2.7-.7,4.991,4.991,0,0,1-2.3-3.2,12.253,12.253,0,0,1-.2-1.9,4.333,4.333,0,0,1,.4-1.9,3.674,3.674,0,0,1,3-1.7,3.36,3.36,0,0,1,1.4.5,9.351,9.351,0,0,1,1.9,1.4,4.589,4.589,0,0,1,1,2.5.669.669,0,0,1-.6.7h0a.871.871,0,0,1-.8-.6,2.837,2.837,0,0,0-.7-1.7,4.188,4.188,0,0,0-1.6-1.1,1.136,1.136,0,0,0-.8-.3,1.268,1.268,0,0,0-.6.1,1.991,1.991,0,0,0-1.2.8,1.721,1.721,0,0,0-.2,1.2,9.151,9.151,0,0,0,.1,1.6,3.594,3.594,0,0,0,4.4,2.7h.1c.4-.1.8.1.8.5.1.4-.1.8-.5.8h0C111.2,211.3,110.8,211.4,110.4,211.4Z" fill="#231f20"/>
      <path id="Path_40" data-name="Path 40" d="M120.5,222.4a9.5,9.5,0,0,1-4.6-3,4.353,4.353,0,0,1-1-4.1,8.338,8.338,0,0,0,6,3Z" fill="#231f20"/>
      <path id="Path_41" data-name="Path 41" d="M120.5,223.1h-.1a9.254,9.254,0,0,1-5-3.2,4.956,4.956,0,0,1-1.1-4.8.675.675,0,0,1,.6-.4.908.908,0,0,1,.7.3,7.468,7.468,0,0,0,5.4,2.7.764.764,0,0,1,.5.2,1.072,1.072,0,0,1,.2.6l-.4,4.1a.55.55,0,0,1-.3.5C120.8,223,120.7,223.1,120.5,223.1Zm-5.1-6.2a4.117,4.117,0,0,0,1,2.1,10.718,10.718,0,0,0,3.5,2.5l.2-2.5a8.722,8.722,0,0,1-4.7-2.1Z" fill="#231f20"/>
      <path id="Path_42" data-name="Path 42" d="M122.7,210.9a6.465,6.465,0,0,1-2-.4.7.7,0,1,1,.5-1.3h0a3.8,3.8,0,0,0,1.8.3,15.747,15.747,0,0,0-1.6-4.6.659.659,0,0,1,.3-.9h0a.659.659,0,0,1,.9.3c2.5,5.2,1.6,5.9,1.3,6.2A1.9,1.9,0,0,1,122.7,210.9Z" fill="#231f20"/>
      <path id="Path_43" data-name="Path 43" d="M120.6,213.7a3.986,3.986,0,0,1-2.4-.7,3.564,3.564,0,0,1-1.4-2.6c-.1-.4.2-.7.6-.8h0c.4-.1.7.2.8.6a2.2,2.2,0,0,0,.9,1.6,3.083,3.083,0,0,0,2.1.4c.4-.1.7.2.8.6s-.2.7-.6.8h0A2.2,2.2,0,0,1,120.6,213.7Z" fill="#231f20"/>
      <path id="Path_44" data-name="Path 44" d="M119.6,203a.764.764,0,0,1-.5-.2,1.231,1.231,0,0,0-1-.5,2.2,2.2,0,0,0-1.5.6.675.675,0,0,1-1-.1.668.668,0,0,1,0-1h0a3.84,3.84,0,0,1,2.5-.9,2.276,2.276,0,0,1,1.9,1,.76.76,0,0,1,0,1h0C119.9,202.9,119.8,203,119.6,203Z" fill="#231f20"/>
      <path id="Path_45" data-name="Path 45" d="M123.8,203.9a.367.367,0,0,1-.3-.1.687.687,0,0,1-.3-.9,2.2,2.2,0,0,1,1.6-1.2,2.656,2.656,0,0,1,2.2,1.1.775.775,0,0,1-.2,1,1.1,1.1,0,0,1-.8,0,1.828,1.828,0,0,0-1-.6c-.2,0-.5.4-.5.4A1.143,1.143,0,0,1,123.8,203.9Z" fill="#231f20"/>
      <path id="Path_46" data-name="Path 46" d="M115.2,230l-4.6,2.4,2.7,3.7-8.1,34.6,7.7,8.7,6.7-11.8-3.9-31.5,3.1-3.3Z" fill="#fff"/>
      <path id="Path_47" data-name="Path 47" d="M47.4,373.3,38,379.7s16,27.1,20.4,20.1c1.2-1.9-6.5-17.9-6.5-17.9Z" fill="#231f20"/>
      <path id="Path_48" data-name="Path 48" d="M56.5,401.7h0c-6.2-.1-17.7-19.4-19-21.6a.651.651,0,0,1,.2-.9l9.4-6.4a.775.775,0,0,1,1,.2v.1l4.5,8.6c2.3,4.9,7.6,16.6,6.3,18.6A2.775,2.775,0,0,1,56.5,401.7ZM39,379.9c3.7,6.1,13.1,20.3,17.5,20.4a1.6,1.6,0,0,0,1.4-.8c.5-1.2-3-9.9-6.5-17.2l-4.2-7.9Z" fill="#231f20"/>
      <path id="Path_49" data-name="Path 49" d="M143.8,395.8s-.3,10.5.7,10.6,30.6-3.9,28.4-6.1-16.4-5.5-16.4-5.5Z" fill="#231f20"/>
      <path id="Path_50" data-name="Path 50" d="M144.4,407.1h0c-.6-.1-1.5-.3-1.2-11.3a.749.749,0,0,1,.6-.7l12.6-1h.2c1.5.3,14.4,3.3,16.8,5.7a.925.925,0,0,1,.2,1.2C172,404,145,407.1,144.4,407.1Zm.5-1.2Zm-.4-9.5a56.021,56.021,0,0,0,.3,9.3c3.3-.1,24.5-3.4,27.3-5.2-2.1-1.5-10.4-3.8-15.7-5Z" fill="#231f20"/>
      <path id="Path_51" data-name="Path 51" d="M127.3,287.7h0a.66.66,0,0,1-.7-.8h0c1.1-8.5,6.4-41.4,6.5-41.7a.641.641,0,0,1,.8-.6c.4.1.7.4.6.8v.1c-.1.3-5.4,33.1-6.4,41.6A.871.871,0,0,1,127.3,287.7Z" fill="#231f20"/>
      <circle id="Ellipse_2" data-name="Ellipse 2" cx="41.3" cy="41.3" r="41.3" transform="translate(143.7 194.4)" fill="#231f20"/>
      <path id="Path_52" data-name="Path 52" d="M185,277.6a42,42,0,1,1,41.9-44.4h0a41.942,41.942,0,0,1-39.4,44.3A21.749,21.749,0,0,1,185,277.6Zm.1-82.5a19.267,19.267,0,0,0-2.4.1,40.571,40.571,0,1,0,42.9,38.1h0a40.7,40.7,0,0,0-40.5-38.2Z" fill="#231f20"/>
      <circle id="Ellipse_3" data-name="Ellipse 3" cx="41.3" cy="41.3" r="41.3" transform="translate(137.3 194.8)"/>
      <path id="Path_53" data-name="Path 53" d="M178.6,278a40.764,40.764,0,1,1,2.5,0Zm.1-82.5a19.267,19.267,0,0,0-2.4.1,40.076,40.076,0,1,0,2.4-.1Z" fill="#231f20"/>
      <path id="Path_54" data-name="Path 54" d="M204.6,222.1l-.9,1.2-32,32c-1.1,1.1-1.9,1.1-3,0l-18-18.6a1.76,1.76,0,0,1-.3-2.5,1,1,0,0,1,.5-.4l4.5-4.1a1.727,1.727,0,0,1,2.4-.2l.3.3,10.7,10.9c1.1,1.1,1.9,1.1,3,0L196.6,216c1.1-1.1,1.9-1.1,3,0l4.2,4.2.9,1.2Z" fill="#fff"/>
      <path id="Path_55" data-name="Path 55" d="M138.8,259.4s8.4-1.1,9.7-1.9,4.8-6.6,6.7-7,1.5,3.8,0,5.5,7.1-4.6,8.5-3.2a7.05,7.05,0,0,1,0,8.5c-2.4,2.9-16.6,8.5-24,8.9" fill="#fff"/>
      <path id="Path_56" data-name="Path 56" d="M139.6,270.8a.7.7,0,0,1,0-1.4h0c7.1-.4,21.2-5.9,23.5-8.6a6.452,6.452,0,0,0,.1-7.6c-.8-.3-4.6,1.9-5.9,2.6-2,1.1-2.4,1.4-2.8.8-.3-.3-.2-.7.2-1.2,1-1.2,1.3-3.6.9-4.2,0-.1-.1-.1-.2-.1-.9.2-2.7,2.6-4,4.1a16.218,16.218,0,0,1-2.5,2.8c-1.4.9-8.6,1.9-10,2a.76.76,0,0,1-.8-.6c-.1-.4.2-.7.6-.8,3.4-.4,8.6-1.3,9.4-1.8a16.379,16.379,0,0,0,2.1-2.5c2-2.5,3.5-4.3,4.8-4.6a1.43,1.43,0,0,1,1.7.7,5.791,5.791,0,0,1,0,4.1c3.5-2,6.3-3.5,7.4-2.3,1.7,1.7,2.6,6.3,0,9.4s-16.8,8.8-24.5,9.2Z" fill="#231f20"/>
      <path id="Path_57" data-name="Path 57" d="M93,221.9s3.6,35.9,14,36.1c12.7.2,34.4-.3,34.4-.3l4.2,13.5s-33.6,8.1-47.8,1.9-15.2-30.3-15.2-30.3Z"/>
      <path id="Path_58" data-name="Path 58" d="M117.2,259.1c-5.7,0-10.6-.2-11.9-.8-3.7-1.6-10.5-25.1-11.9-29.9a.715.715,0,0,1,.5-.9h0a.715.715,0,0,1,.9.5h0c3,10.6,8.7,27.9,11.1,28.9s22.6.6,35.4,0a.849.849,0,0,1,.8.7h0a.849.849,0,0,1-.7.8C139.3,258.5,127,259.1,117.2,259.1Z" fill="#231f20"/>
      <path id="Path_59" data-name="Path 59" d="M112.9,275.9c-5.7,0-11.3-.5-15.3-2.1C84.2,268.7,82,249.9,82,249.1c0-.4.2-.8.6-.8s.8.2.8.6h0c0,.2,2.2,18.8,14.7,23.5,12.8,4.8,41.7-.8,42-.8a.641.641,0,0,1,.8.6h0a.641.641,0,0,1-.6.8h0A157.269,157.269,0,0,1,112.9,275.9Z" fill="#231f20"/>
    </g>
  </g>
</svg>
