<svg xmlns="http://www.w3.org/2000/svg" width="647.635" height="632.17" viewBox="0 0 647.635 632.17">
  <g id="no-data" transform="translate(-0.001 -0.004)">
    <path id="Path_60" data-name="Path 60" d="M687.328,276.087H512.818a15.018,15.018,0,0,0-15,15v387.85l-2,.61-42.81,13.11a8.007,8.007,0,0,1-9.99-5.31L315.678,271.4a8,8,0,0,1,5.31-9.99l65.97-20.2,191.25-58.54,65.97-20.2a7.989,7.989,0,0,1,9.99,5.3l32.55,106.32Z" transform="translate(-276.182 -133.913)" fill="#f2f2f2"/>
    <path id="Path_61" data-name="Path 61" d="M725.408,274.087l-39.23-128.14a16.994,16.994,0,0,0-21.23-11.28l-92.75,28.39-191.24,58.55-92.75,28.4a17.015,17.015,0,0,0-11.28,21.23l134.08,437.93a17.027,17.027,0,0,0,16.26,12.03,16.789,16.789,0,0,0,4.97-.75l63.58-19.46,2-.62v-2.09l-2,.61-64.17,19.65a15.015,15.015,0,0,1-18.73-9.95l-134.07-437.94a14.979,14.979,0,0,1,9.95-18.73l92.75-28.4,191.24-58.54,92.75-28.4a14.985,14.985,0,0,1,18.73,9.95l39.05,127.56.62,2h2.08Z" transform="translate(-276.182 -133.913)" fill="#3f3d56"/>
    <path id="Path_62" data-name="Path 62" d="M398.863,261.734a9.016,9.016,0,0,1-8.611-6.367L377.371,213.3a9,9,0,0,1,5.971-11.24l175.939-53.864a9.009,9.009,0,0,1,11.241,5.971l12.88,42.072a9.01,9.01,0,0,1-5.971,11.241l-175.94,53.864a8.977,8.977,0,0,1-2.629.4Z" transform="translate(-276.182 -133.913)"/>
    <circle id="Ellipse_4" data-name="Ellipse 4" cx="20" cy="20" r="20" transform="translate(170.154 4.955)"/>
    <circle id="Ellipse_5" data-name="Ellipse 5" cx="12.665" cy="12.665" r="12.665" transform="translate(177.489 12.29)" fill="#fff"/>
    <path id="Path_63" data-name="Path 63" d="M878.818,716.087h-338a8.51,8.51,0,0,1-8.5-8.5v-405a8.509,8.509,0,0,1,8.5-8.5h338a8.51,8.51,0,0,1,8.5,8.5v405A8.51,8.51,0,0,1,878.818,716.087Z" transform="translate(-276.182 -133.913)" fill="#e6e6e6"/>
    <path id="Path_64" data-name="Path 64" d="M723.318,274.087h-210.5a17.024,17.024,0,0,0-17,17v407.8l2-.61V291.087a15.018,15.018,0,0,1,15-15h211.12Zm183.5,0h-394a17.024,17.024,0,0,0-17,17v458a17.024,17.024,0,0,0,17,17h394a17.024,17.024,0,0,0,17-17v-458a17.024,17.024,0,0,0-17-17Zm15,475a15.018,15.018,0,0,1-15,15h-394a15.018,15.018,0,0,1-15-15v-458a15.018,15.018,0,0,1,15-15h394a15.018,15.018,0,0,1,15,15Z" transform="translate(-276.182 -133.913)" fill="#3f3d56"/>
    <path id="Path_65" data-name="Path 65" d="M801.818,318.087h-184a9.01,9.01,0,0,1-9-9v-44a9.01,9.01,0,0,1,9-9h184a9.01,9.01,0,0,1,9,9v44a9.01,9.01,0,0,1-9,9Z" transform="translate(-276.182 -133.913)"/>
    <circle id="Ellipse_6" data-name="Ellipse 6" cx="20" cy="20" r="20" transform="translate(413.636 85.174)"/>
    <circle id="Ellipse_7" data-name="Ellipse 7" cx="12.182" cy="12.182" r="12.182" transform="translate(421.454 92.992)" fill="#fff"/>
  </g>
</svg>
